<svg width="24" height="24" viewBox="0 0 24 24" fill="none" xmlns="http://www.w3.org/2000/svg">
<path d="M14.5134 10.192L14.3484 10.423L12.0084 13.742L9.65244 10.423L9.48744 10.1755C9.10656 9.64614 8.89936 9.01162 8.89444 8.3595C8.89352 7.95269 8.97275 7.54968 9.12759 7.17349C9.28244 6.7973 9.50987 6.45529 9.79691 6.16701C10.0839 5.87872 10.4249 5.6498 10.8005 5.49332C11.176 5.33683 11.5786 5.25585 11.9854 5.255H11.9924C12.3992 5.25493 12.802 5.33499 13.1778 5.49059C13.5537 5.6462 13.8952 5.8743 14.1829 6.16188C14.4705 6.44947 14.6987 6.7909 14.8545 7.16668C15.0102 7.54246 15.0904 7.94523 15.0904 8.352V8.359C15.0916 9.01471 14.8901 9.65476 14.5134 10.1915M11.9924 2.25C11.1887 2.25052 10.3929 2.40943 9.65064 2.71763C8.90834 3.02583 8.23405 3.47728 7.6663 4.04619C7.09855 4.6151 6.64847 5.29032 6.34179 6.03325C6.0351 6.77618 5.87783 7.57226 5.87894 8.376C5.87444 9.65724 6.27851 10.9066 7.03244 11.9425L7.19744 12.1735L10.3774 16.6815C10.516 16.8808 10.7009 17.0434 10.9162 17.1555C11.1315 17.2676 11.3707 17.3257 11.6134 17.325H12.3884C12.6312 17.3257 12.8704 17.2676 13.0857 17.1555C13.301 17.0434 13.4859 16.8808 13.6244 16.6815L16.8044 12.1735L16.9694 11.9425C17.7217 10.9059 18.1256 9.6573 18.1229 8.3765C18.1187 6.75226 17.4713 5.19581 16.3224 4.04767C15.1736 2.89953 13.6167 2.25317 11.9924 2.25ZM10.2784 20.082C10.2769 19.8593 10.3198 19.6385 10.4048 19.4326C10.4897 19.2267 10.6149 19.0398 10.773 18.883C10.9311 18.7261 11.119 18.6024 11.3255 18.5191C11.5321 18.4358 11.7532 18.3947 11.9759 18.398C12.1981 18.3916 12.4192 18.4301 12.6261 18.5113C12.8329 18.5924 13.0213 18.7145 13.1798 18.8702C13.3383 19.026 13.4638 19.2121 13.5486 19.4175C13.6334 19.6229 13.6759 19.8433 13.6734 20.0655V20.0825C13.6734 20.5327 13.4946 20.9645 13.1763 21.2828C12.8579 21.6012 12.4261 21.78 11.9759 21.78C11.5257 21.78 11.094 21.6012 10.7756 21.2828C10.4573 20.9645 10.2784 20.5322 10.2784 20.082Z" stroke="#460066" stroke-linecap="round" stroke-linejoin="round"/>
</svg>
