<svg width="14" height="22" viewBox="0 0 14 22" fill="none" xmlns="http://www.w3.org/2000/svg">

<path d="M9.51344 9.192L9.34844 9.423L7.00844 12.742L4.65244 9.423L4.48744 9.1755C4.10656 8.64614 3.89936 8.01162 3.89444 7.3595C3.89352 6.95269 3.97275 6.54968 4.12759 6.17349C4.28244 5.7973 4.50987 5.45529 4.79691 5.16701C5.08394 4.87872 5.42495 4.6498 5.80046 4.49332C6.17597 4.33683 6.57863 4.25585 6.98544 4.255H6.99244C7.39921 4.25493 7.80201 4.33499 8.17784 4.49059C8.55367 4.6462 8.89518 4.8743 9.18285 5.16188C9.47053 5.44947 9.69874 5.7909 9.85447 6.16668C10.0102 6.54246 10.0904 6.94523 10.0904 7.352V7.359C10.0916 8.01471 9.89011 8.65476 9.51344 9.1915M6.99244 1.25C6.1887 1.25052 5.39294 1.40943 4.65064 1.71763C3.90834 2.02583 3.23405 2.47728 2.6663 3.04619C2.09855 3.6151 1.64847 4.29032 1.34179 5.03325C1.0351 5.77618 0.877826 6.57226 0.878943 7.376C0.874445 8.65724 1.27851 9.90656 2.03244 10.9425L2.19744 11.1735L5.37744 15.6815C5.51603 15.8808 5.7009 16.0434 5.91618 16.1555C6.13147 16.2676 6.37073 16.3257 6.61344 16.325H7.38844C7.63115 16.3257 7.87042 16.2676 8.0857 16.1555C8.30099 16.0434 8.48586 15.8808 8.62444 15.6815L11.8044 11.1735L11.9694 10.9425C12.7217 9.9059 13.1256 8.6573 13.1229 7.3765C13.1187 5.75226 12.4713 4.19581 11.3224 3.04767C10.1736 1.89953 8.61669 1.25317 6.99244 1.25ZM5.27844 19.082C5.27689 18.8593 5.31983 18.6385 5.40476 18.4326C5.48968 18.2267 5.61488 18.0398 5.773 17.883C5.93112 17.7261 6.11897 17.6024 6.32555 17.5191C6.53212 17.4358 6.75324 17.3947 6.97594 17.398C7.19807 17.3916 7.4192 17.4301 7.62607 17.5113C7.83295 17.5924 8.0213 17.7145 8.17982 17.8702C8.33835 18.026 8.46379 18.2121 8.54861 18.4175C8.63343 18.6229 8.67589 18.8433 8.67344 19.0655V19.0825C8.67344 19.5327 8.4946 19.9645 8.17626 20.2828C7.85791 20.6012 7.42615 20.78 6.97594 20.78C6.52574 20.78 6.09397 20.6012 5.77563 20.2828C5.45729 19.9645 5.27844 19.5322 5.27844 19.082Z" stroke="#FF0000" stroke-linecap="round" stroke-linejoin="round"/>
</svg>
